<svg width="205" height="355" viewBox="0 0 205 355" fill="none" xmlns="http://www.w3.org/2000/svg">
<g clip-path="url(#clip0_618:2320)">
<path fill-rule="evenodd" clip-rule="evenodd" d="M19 48.9198C19 43.5161 23.477 39.1358 29 39.1358C34.523 39.1358 39 43.5161 39 48.9198C39 54.3234 34.523 58.7037 29 58.7037C29 64.1074 24.523 68.4877 19 68.4877C13.477 68.4877 9 64.1074 9 58.7037C9 53.3 13.477 48.9198 19 48.9198ZM-21 9.78395C-21 4.38028 -16.523 0 -11 0C-5.477 0 -1 4.38028 -1 9.78395C-1 15.1876 -5.477 19.5679 -11 19.5679C-11 24.9716 -15.477 29.3519 -21 29.3519C-26.523 29.3519 -31 24.9716 -31 19.5679C-31 14.1642 -26.523 9.78395 -21 9.78395ZM-11 17.6111C-6.582 17.6111 -3 14.1065 -3 9.78395C-3 5.4614 -6.582 1.95679 -11 1.95679C-15.418 1.95679 -19 5.4614 -19 9.78395C-19 14.1065 -15.418 17.6111 -11 17.6111ZM29 56.7469C33.418 56.7469 37 53.2423 37 48.9198C37 44.5972 33.418 41.0926 29 41.0926C24.582 41.0926 21 44.5972 21 48.9198C21 53.2423 24.582 56.7469 29 56.7469Z" fill="black"/>
<path fill-rule="evenodd" clip-rule="evenodd" d="M101 48.9198C101 43.5161 105.477 39.1358 111 39.1358C116.523 39.1358 121 43.5161 121 48.9198C121 54.3234 116.523 58.7037 111 58.7037C111 64.1074 106.523 68.4877 101 68.4877C95.477 68.4877 91 64.1074 91 58.7037C91 53.3 95.477 48.9198 101 48.9198ZM61 9.78395C61 4.38028 65.477 0 71 0C76.523 0 81 4.38028 81 9.78395C81 15.1876 76.523 19.5679 71 19.5679C71 24.9716 66.523 29.3519 61 29.3519C55.477 29.3519 51 24.9716 51 19.5679C51 14.1642 55.477 9.78395 61 9.78395ZM71 17.6111C75.418 17.6111 79 14.1065 79 9.78395C79 5.4614 75.418 1.95679 71 1.95679C66.582 1.95679 63 5.4614 63 9.78395C63 14.1065 66.582 17.6111 71 17.6111ZM111 56.7469C115.418 56.7469 119 53.2423 119 48.9198C119 44.5972 115.418 41.0926 111 41.0926C106.582 41.0926 103 44.5972 103 48.9198C103 53.2423 106.582 56.7469 111 56.7469Z" fill="black"/>
<path fill-rule="evenodd" clip-rule="evenodd" d="M183 48.9198C183 43.5161 187.477 39.1358 193 39.1358C198.523 39.1358 203 43.5161 203 48.9198C203 54.3234 198.523 58.7037 193 58.7037C193 64.1074 188.523 68.4877 183 68.4877C177.477 68.4877 173 64.1074 173 58.7037C173 53.3 177.477 48.9198 183 48.9198ZM143 9.78395C143 4.38028 147.477 0 153 0C158.523 0 163 4.38028 163 9.78395C163 15.1876 158.523 19.5679 153 19.5679C153 24.9716 148.523 29.3519 143 29.3519C137.477 29.3519 133 24.9716 133 19.5679C133 14.1642 137.477 9.78395 143 9.78395ZM153 17.6111C157.418 17.6111 161 14.1065 161 9.78395C161 5.4614 157.418 1.95679 153 1.95679C148.582 1.95679 145 5.4614 145 9.78395C145 14.1065 148.582 17.6111 153 17.6111ZM193 56.7469C197.418 56.7469 201 53.2423 201 48.9198C201 44.5972 197.418 41.0926 193 41.0926C188.582 41.0926 185 44.5972 185 48.9198C185 53.2423 188.582 56.7469 193 56.7469Z" fill="black"/>
<path fill-rule="evenodd" clip-rule="evenodd" d="M19 129.148C19 123.745 23.477 119.364 29 119.364C34.523 119.364 39 123.745 39 129.148C39 134.552 34.523 138.932 29 138.932C29 144.336 24.523 148.716 19 148.716C13.477 148.716 9 144.336 9 138.932C9 133.529 13.477 129.148 19 129.148ZM-21 90.0125C-21 84.6088 -16.523 80.2285 -11 80.2285C-5.477 80.2285 -1 84.6088 -1 90.0125C-1 95.4161 -5.477 99.7964 -11 99.7964C-11 105.2 -15.477 109.58 -21 109.58C-26.523 109.58 -31 105.2 -31 99.7964C-31 94.3927 -26.523 90.0125 -21 90.0125ZM-11 97.8396C-6.582 97.8396 -3 94.335 -3 90.0125C-3 85.6899 -6.582 82.1853 -11 82.1853C-15.418 82.1853 -19 85.6899 -19 90.0125C-19 94.335 -15.418 97.8396 -11 97.8396ZM29 136.975C33.418 136.975 37 133.471 37 129.148C37 124.826 33.418 121.321 29 121.321C24.582 121.321 21 124.826 21 129.148C21 133.471 24.582 136.975 29 136.975Z" fill="black"/>
<path fill-rule="evenodd" clip-rule="evenodd" d="M101 129.148C101 123.745 105.477 119.364 111 119.364C116.523 119.364 121 123.745 121 129.148C121 134.552 116.523 138.932 111 138.932C111 144.336 106.523 148.716 101 148.716C95.477 148.716 91 144.336 91 138.932C91 133.529 95.477 129.148 101 129.148ZM61 90.0125C61 84.6088 65.477 80.2285 71 80.2285C76.523 80.2285 81 84.6088 81 90.0125C81 95.4161 76.523 99.7964 71 99.7964C71 105.2 66.523 109.58 61 109.58C55.477 109.58 51 105.2 51 99.7964C51 94.3927 55.477 90.0125 61 90.0125ZM71 97.8396C75.418 97.8396 79 94.335 79 90.0125C79 85.6899 75.418 82.1853 71 82.1853C66.582 82.1853 63 85.6899 63 90.0125C63 94.335 66.582 97.8396 71 97.8396ZM111 136.975C115.418 136.975 119 133.471 119 129.148C119 124.826 115.418 121.321 111 121.321C106.582 121.321 103 124.826 103 129.148C103 133.471 106.582 136.975 111 136.975Z" fill="black"/>
<path fill-rule="evenodd" clip-rule="evenodd" d="M183 129.148C183 123.745 187.477 119.364 193 119.364C198.523 119.364 203 123.745 203 129.148C203 134.552 198.523 138.932 193 138.932C193 144.336 188.523 148.716 183 148.716C177.477 148.716 173 144.336 173 138.932C173 133.529 177.477 129.148 183 129.148ZM143 90.0125C143 84.6088 147.477 80.2285 153 80.2285C158.523 80.2285 163 84.6088 163 90.0125C163 95.4161 158.523 99.7964 153 99.7964C153 105.2 148.523 109.58 143 109.58C137.477 109.58 133 105.2 133 99.7964C133 94.3927 137.477 90.0125 143 90.0125ZM153 97.8396C157.418 97.8396 161 94.335 161 90.0125C161 85.6899 157.418 82.1853 153 82.1853C148.582 82.1853 145 85.6899 145 90.0125C145 94.335 148.582 97.8396 153 97.8396ZM193 136.975C197.418 136.975 201 133.471 201 129.148C201 124.826 197.418 121.321 193 121.321C188.582 121.321 185 124.826 185 129.148C185 133.471 188.582 136.975 193 136.975Z" fill="black"/>
<path fill-rule="evenodd" clip-rule="evenodd" d="M19 209.377C19 203.973 23.477 199.593 29 199.593C34.523 199.593 39 203.973 39 209.377C39 214.78 34.523 219.16 29 219.16C29 224.564 24.523 228.944 19 228.944C13.477 228.944 9 224.564 9 219.16C9 213.757 13.477 209.377 19 209.377ZM-21 170.241C-21 164.837 -16.523 160.457 -11 160.457C-5.477 160.457 -1 164.837 -1 170.241C-1 175.644 -5.477 180.025 -11 180.025C-11 185.428 -15.477 189.809 -21 189.809C-26.523 189.809 -31 185.428 -31 180.025C-31 174.621 -26.523 170.241 -21 170.241ZM-11 178.068C-6.582 178.068 -3 174.563 -3 170.241C-3 165.918 -6.582 162.414 -11 162.414C-15.418 162.414 -19 165.918 -19 170.241C-19 174.563 -15.418 178.068 -11 178.068ZM29 217.204C33.418 217.204 37 213.699 37 209.377C37 205.054 33.418 201.549 29 201.549C24.582 201.549 21 205.054 21 209.377C21 213.699 24.582 217.204 29 217.204Z" fill="black"/>
<path fill-rule="evenodd" clip-rule="evenodd" d="M101 209.377C101 203.973 105.477 199.593 111 199.593C116.523 199.593 121 203.973 121 209.377C121 214.78 116.523 219.16 111 219.16C111 224.564 106.523 228.944 101 228.944C95.477 228.944 91 224.564 91 219.16C91 213.757 95.477 209.377 101 209.377ZM61 170.241C61 164.837 65.477 160.457 71 160.457C76.523 160.457 81 164.837 81 170.241C81 175.644 76.523 180.025 71 180.025C71 185.428 66.523 189.809 61 189.809C55.477 189.809 51 185.428 51 180.025C51 174.621 55.477 170.241 61 170.241ZM71 178.068C75.418 178.068 79 174.563 79 170.241C79 165.918 75.418 162.414 71 162.414C66.582 162.414 63 165.918 63 170.241C63 174.563 66.582 178.068 71 178.068ZM111 217.204C115.418 217.204 119 213.699 119 209.377C119 205.054 115.418 201.549 111 201.549C106.582 201.549 103 205.054 103 209.377C103 213.699 106.582 217.204 111 217.204Z" fill="black"/>
<path fill-rule="evenodd" clip-rule="evenodd" d="M183 209.377C183 203.973 187.477 199.593 193 199.593C198.523 199.593 203 203.973 203 209.377C203 214.78 198.523 219.16 193 219.16C193 224.564 188.523 228.944 183 228.944C177.477 228.944 173 224.564 173 219.16C173 213.757 177.477 209.377 183 209.377ZM143 170.241C143 164.837 147.477 160.457 153 160.457C158.523 160.457 163 164.837 163 170.241C163 175.644 158.523 180.025 153 180.025C153 185.428 148.523 189.809 143 189.809C137.477 189.809 133 185.428 133 180.025C133 174.621 137.477 170.241 143 170.241ZM153 178.068C157.418 178.068 161 174.563 161 170.241C161 165.918 157.418 162.414 153 162.414C148.582 162.414 145 165.918 145 170.241C145 174.563 148.582 178.068 153 178.068ZM193 217.204C197.418 217.204 201 213.699 201 209.377C201 205.054 197.418 201.549 193 201.549C188.582 201.549 185 205.054 185 209.377C185 213.699 188.582 217.204 193 217.204Z" fill="black"/>
<path fill-rule="evenodd" clip-rule="evenodd" d="M19 289.605C19 284.201 23.477 279.821 29 279.821C34.523 279.821 39 284.201 39 289.605C39 295.008 34.523 299.389 29 299.389C29 304.792 24.523 309.173 19 309.173C13.477 309.173 9 304.792 9 299.389C9 293.985 13.477 289.605 19 289.605ZM-21 250.469C-21 245.065 -16.523 240.685 -11 240.685C-5.477 240.685 -1 245.065 -1 250.469C-1 255.873 -5.477 260.253 -11 260.253C-11 265.657 -15.477 270.037 -21 270.037C-26.523 270.037 -31 265.657 -31 260.253C-31 254.849 -26.523 250.469 -21 250.469ZM-11 258.296C-6.582 258.296 -3 254.792 -3 250.469C-3 246.146 -6.582 242.642 -11 242.642C-15.418 242.642 -19 246.146 -19 250.469C-19 254.792 -15.418 258.296 -11 258.296ZM29 297.432C33.418 297.432 37 293.927 37 289.605C37 285.282 33.418 281.778 29 281.778C24.582 281.778 21 285.282 21 289.605C21 293.927 24.582 297.432 29 297.432Z" fill="black"/>
<path fill-rule="evenodd" clip-rule="evenodd" d="M101 289.605C101 284.201 105.477 279.821 111 279.821C116.523 279.821 121 284.201 121 289.605C121 295.008 116.523 299.389 111 299.389C111 304.792 106.523 309.173 101 309.173C95.477 309.173 91 304.792 91 299.389C91 293.985 95.477 289.605 101 289.605ZM61 250.469C61 245.065 65.477 240.685 71 240.685C76.523 240.685 81 245.065 81 250.469C81 255.873 76.523 260.253 71 260.253C71 265.657 66.523 270.037 61 270.037C55.477 270.037 51 265.657 51 260.253C51 254.849 55.477 250.469 61 250.469ZM71 258.296C75.418 258.296 79 254.792 79 250.469C79 246.146 75.418 242.642 71 242.642C66.582 242.642 63 246.146 63 250.469C63 254.792 66.582 258.296 71 258.296ZM111 297.432C115.418 297.432 119 293.927 119 289.605C119 285.282 115.418 281.778 111 281.778C106.582 281.778 103 285.282 103 289.605C103 293.927 106.582 297.432 111 297.432Z" fill="black"/>
<path fill-rule="evenodd" clip-rule="evenodd" d="M183 289.605C183 284.201 187.477 279.821 193 279.821C198.523 279.821 203 284.201 203 289.605C203 295.008 198.523 299.389 193 299.389C193 304.792 188.523 309.173 183 309.173C177.477 309.173 173 304.792 173 299.389C173 293.985 177.477 289.605 183 289.605ZM143 250.469C143 245.065 147.477 240.685 153 240.685C158.523 240.685 163 245.065 163 250.469C163 255.873 158.523 260.253 153 260.253C153 265.657 148.523 270.037 143 270.037C137.477 270.037 133 265.657 133 260.253C133 254.849 137.477 250.469 143 250.469ZM153 258.296C157.418 258.296 161 254.792 161 250.469C161 246.146 157.418 242.642 153 242.642C148.582 242.642 145 246.146 145 250.469C145 254.792 148.582 258.296 153 258.296ZM193 297.432C197.418 297.432 201 293.927 201 289.605C201 285.282 197.418 281.778 193 281.778C188.582 281.778 185 285.282 185 289.605C185 293.927 188.582 297.432 193 297.432Z" fill="black"/>
</g>
<g clip-path="url(#clip1_618:2320)">
<path fill-rule="evenodd" clip-rule="evenodd" d="M19 86.9198C19 81.5161 23.477 77.1358 29 77.1358C34.523 77.1358 39 81.5161 39 86.9198C39 92.3234 34.523 96.7037 29 96.7037C29 102.107 24.523 106.488 19 106.488C13.477 106.488 9 102.107 9 96.7037C9 91.3 13.477 86.9198 19 86.9198ZM-21 47.784C-21 42.3803 -16.523 38 -11 38C-5.477 38 -1 42.3803 -1 47.784C-1 53.1876 -5.477 57.5679 -11 57.5679C-11 62.9716 -15.477 67.3519 -21 67.3519C-26.523 67.3519 -31 62.9716 -31 57.5679C-31 52.1642 -26.523 47.784 -21 47.784ZM-11 55.6111C-6.582 55.6111 -3 52.1065 -3 47.784C-3 43.4614 -6.582 39.9568 -11 39.9568C-15.418 39.9568 -19 43.4614 -19 47.784C-19 52.1065 -15.418 55.6111 -11 55.6111ZM29 94.7469C33.418 94.7469 37 91.2423 37 86.9198C37 82.5972 33.418 79.0926 29 79.0926C24.582 79.0926 21 82.5972 21 86.9198C21 91.2423 24.582 94.7469 29 94.7469Z" fill="black"/>
<path fill-rule="evenodd" clip-rule="evenodd" d="M101 86.9198C101 81.5161 105.477 77.1358 111 77.1358C116.523 77.1358 121 81.5161 121 86.9198C121 92.3234 116.523 96.7037 111 96.7037C111 102.107 106.523 106.488 101 106.488C95.477 106.488 91 102.107 91 96.7037C91 91.3 95.477 86.9198 101 86.9198ZM61 47.784C61 42.3803 65.477 38 71 38C76.523 38 81 42.3803 81 47.784C81 53.1876 76.523 57.5679 71 57.5679C71 62.9716 66.523 67.3519 61 67.3519C55.477 67.3519 51 62.9716 51 57.5679C51 52.1642 55.477 47.784 61 47.784ZM71 55.6111C75.418 55.6111 79 52.1065 79 47.784C79 43.4614 75.418 39.9568 71 39.9568C66.582 39.9568 63 43.4614 63 47.784C63 52.1065 66.582 55.6111 71 55.6111ZM111 94.7469C115.418 94.7469 119 91.2423 119 86.9198C119 82.5972 115.418 79.0926 111 79.0926C106.582 79.0926 103 82.5972 103 86.9198C103 91.2423 106.582 94.7469 111 94.7469Z" fill="black"/>
<path fill-rule="evenodd" clip-rule="evenodd" d="M183 86.9198C183 81.5161 187.477 77.1358 193 77.1358C198.523 77.1358 203 81.5161 203 86.9198C203 92.3234 198.523 96.7037 193 96.7037C193 102.107 188.523 106.488 183 106.488C177.477 106.488 173 102.107 173 96.7037C173 91.3 177.477 86.9198 183 86.9198ZM143 47.784C143 42.3803 147.477 38 153 38C158.523 38 163 42.3803 163 47.784C163 53.1876 158.523 57.5679 153 57.5679C153 62.9716 148.523 67.3519 143 67.3519C137.477 67.3519 133 62.9716 133 57.5679C133 52.1642 137.477 47.784 143 47.784ZM153 55.6111C157.418 55.6111 161 52.1065 161 47.784C161 43.4614 157.418 39.9568 153 39.9568C148.582 39.9568 145 43.4614 145 47.784C145 52.1065 148.582 55.6111 153 55.6111ZM193 94.7469C197.418 94.7469 201 91.2423 201 86.9198C201 82.5972 197.418 79.0926 193 79.0926C188.582 79.0926 185 82.5972 185 86.9198C185 91.2423 188.582 94.7469 193 94.7469Z" fill="black"/>
<path fill-rule="evenodd" clip-rule="evenodd" d="M19 167.148C19 161.745 23.477 157.364 29 157.364C34.523 157.364 39 161.745 39 167.148C39 172.552 34.523 176.932 29 176.932C29 182.336 24.523 186.716 19 186.716C13.477 186.716 9 182.336 9 176.932C9 171.529 13.477 167.148 19 167.148ZM-21 128.012C-21 122.609 -16.523 118.229 -11 118.229C-5.477 118.229 -1 122.609 -1 128.012C-1 133.416 -5.477 137.796 -11 137.796C-11 143.2 -15.477 147.58 -21 147.58C-26.523 147.58 -31 143.2 -31 137.796C-31 132.393 -26.523 128.012 -21 128.012ZM-11 135.84C-6.582 135.84 -3 132.335 -3 128.012C-3 123.69 -6.582 120.185 -11 120.185C-15.418 120.185 -19 123.69 -19 128.012C-19 132.335 -15.418 135.84 -11 135.84ZM29 174.975C33.418 174.975 37 171.471 37 167.148C37 162.826 33.418 159.321 29 159.321C24.582 159.321 21 162.826 21 167.148C21 171.471 24.582 174.975 29 174.975Z" fill="black"/>
<path fill-rule="evenodd" clip-rule="evenodd" d="M101 167.148C101 161.745 105.477 157.364 111 157.364C116.523 157.364 121 161.745 121 167.148C121 172.552 116.523 176.932 111 176.932C111 182.336 106.523 186.716 101 186.716C95.477 186.716 91 182.336 91 176.932C91 171.529 95.477 167.148 101 167.148ZM61 128.012C61 122.609 65.477 118.229 71 118.229C76.523 118.229 81 122.609 81 128.012C81 133.416 76.523 137.796 71 137.796C71 143.2 66.523 147.58 61 147.58C55.477 147.58 51 143.2 51 137.796C51 132.393 55.477 128.012 61 128.012ZM71 135.84C75.418 135.84 79 132.335 79 128.012C79 123.69 75.418 120.185 71 120.185C66.582 120.185 63 123.69 63 128.012C63 132.335 66.582 135.84 71 135.84ZM111 174.975C115.418 174.975 119 171.471 119 167.148C119 162.826 115.418 159.321 111 159.321C106.582 159.321 103 162.826 103 167.148C103 171.471 106.582 174.975 111 174.975Z" fill="black"/>
<path fill-rule="evenodd" clip-rule="evenodd" d="M183 167.148C183 161.745 187.477 157.364 193 157.364C198.523 157.364 203 161.745 203 167.148C203 172.552 198.523 176.932 193 176.932C193 182.336 188.523 186.716 183 186.716C177.477 186.716 173 182.336 173 176.932C173 171.529 177.477 167.148 183 167.148ZM143 128.012C143 122.609 147.477 118.229 153 118.229C158.523 118.229 163 122.609 163 128.012C163 133.416 158.523 137.796 153 137.796C153 143.2 148.523 147.58 143 147.58C137.477 147.58 133 143.2 133 137.796C133 132.393 137.477 128.012 143 128.012ZM153 135.84C157.418 135.84 161 132.335 161 128.012C161 123.69 157.418 120.185 153 120.185C148.582 120.185 145 123.69 145 128.012C145 132.335 148.582 135.84 153 135.84ZM193 174.975C197.418 174.975 201 171.471 201 167.148C201 162.826 197.418 159.321 193 159.321C188.582 159.321 185 162.826 185 167.148C185 171.471 188.582 174.975 193 174.975Z" fill="black"/>
<path fill-rule="evenodd" clip-rule="evenodd" d="M19 247.377C19 241.973 23.477 237.593 29 237.593C34.523 237.593 39 241.973 39 247.377C39 252.78 34.523 257.16 29 257.16C29 262.564 24.523 266.944 19 266.944C13.477 266.944 9 262.564 9 257.16C9 251.757 13.477 247.377 19 247.377ZM-21 208.241C-21 202.837 -16.523 198.457 -11 198.457C-5.477 198.457 -1 202.837 -1 208.241C-1 213.644 -5.477 218.025 -11 218.025C-11 223.428 -15.477 227.809 -21 227.809C-26.523 227.809 -31 223.428 -31 218.025C-31 212.621 -26.523 208.241 -21 208.241ZM-11 216.068C-6.582 216.068 -3 212.563 -3 208.241C-3 203.918 -6.582 200.414 -11 200.414C-15.418 200.414 -19 203.918 -19 208.241C-19 212.563 -15.418 216.068 -11 216.068ZM29 255.204C33.418 255.204 37 251.699 37 247.377C37 243.054 33.418 239.549 29 239.549C24.582 239.549 21 243.054 21 247.377C21 251.699 24.582 255.204 29 255.204Z" fill="black"/>
<path fill-rule="evenodd" clip-rule="evenodd" d="M101 247.377C101 241.973 105.477 237.593 111 237.593C116.523 237.593 121 241.973 121 247.377C121 252.78 116.523 257.16 111 257.16C111 262.564 106.523 266.944 101 266.944C95.477 266.944 91 262.564 91 257.16C91 251.757 95.477 247.377 101 247.377ZM61 208.241C61 202.837 65.477 198.457 71 198.457C76.523 198.457 81 202.837 81 208.241C81 213.644 76.523 218.025 71 218.025C71 223.428 66.523 227.809 61 227.809C55.477 227.809 51 223.428 51 218.025C51 212.621 55.477 208.241 61 208.241ZM71 216.068C75.418 216.068 79 212.563 79 208.241C79 203.918 75.418 200.414 71 200.414C66.582 200.414 63 203.918 63 208.241C63 212.563 66.582 216.068 71 216.068ZM111 255.204C115.418 255.204 119 251.699 119 247.377C119 243.054 115.418 239.549 111 239.549C106.582 239.549 103 243.054 103 247.377C103 251.699 106.582 255.204 111 255.204Z" fill="black"/>
<path fill-rule="evenodd" clip-rule="evenodd" d="M183 247.377C183 241.973 187.477 237.593 193 237.593C198.523 237.593 203 241.973 203 247.377C203 252.78 198.523 257.16 193 257.16C193 262.564 188.523 266.944 183 266.944C177.477 266.944 173 262.564 173 257.16C173 251.757 177.477 247.377 183 247.377ZM143 208.241C143 202.837 147.477 198.457 153 198.457C158.523 198.457 163 202.837 163 208.241C163 213.644 158.523 218.025 153 218.025C153 223.428 148.523 227.809 143 227.809C137.477 227.809 133 223.428 133 218.025C133 212.621 137.477 208.241 143 208.241ZM153 216.068C157.418 216.068 161 212.563 161 208.241C161 203.918 157.418 200.414 153 200.414C148.582 200.414 145 203.918 145 208.241C145 212.563 148.582 216.068 153 216.068ZM193 255.204C197.418 255.204 201 251.699 201 247.377C201 243.054 197.418 239.549 193 239.549C188.582 239.549 185 243.054 185 247.377C185 251.699 188.582 255.204 193 255.204Z" fill="black"/>
<path fill-rule="evenodd" clip-rule="evenodd" d="M19 327.605C19 322.201 23.477 317.821 29 317.821C34.523 317.821 39 322.201 39 327.605C39 333.008 34.523 337.389 29 337.389C29 342.792 24.523 347.173 19 347.173C13.477 347.173 9 342.792 9 337.389C9 331.985 13.477 327.605 19 327.605ZM-21 288.469C-21 283.065 -16.523 278.685 -11 278.685C-5.477 278.685 -1 283.065 -1 288.469C-1 293.873 -5.477 298.253 -11 298.253C-11 303.657 -15.477 308.037 -21 308.037C-26.523 308.037 -31 303.657 -31 298.253C-31 292.849 -26.523 288.469 -21 288.469ZM-11 296.296C-6.582 296.296 -3 292.792 -3 288.469C-3 284.146 -6.582 280.642 -11 280.642C-15.418 280.642 -19 284.146 -19 288.469C-19 292.792 -15.418 296.296 -11 296.296ZM29 335.432C33.418 335.432 37 331.927 37 327.605C37 323.282 33.418 319.778 29 319.778C24.582 319.778 21 323.282 21 327.605C21 331.927 24.582 335.432 29 335.432Z" fill="black"/>
<path fill-rule="evenodd" clip-rule="evenodd" d="M101 327.605C101 322.201 105.477 317.821 111 317.821C116.523 317.821 121 322.201 121 327.605C121 333.008 116.523 337.389 111 337.389C111 342.792 106.523 347.173 101 347.173C95.477 347.173 91 342.792 91 337.389C91 331.985 95.477 327.605 101 327.605ZM61 288.469C61 283.065 65.477 278.685 71 278.685C76.523 278.685 81 283.065 81 288.469C81 293.873 76.523 298.253 71 298.253C71 303.657 66.523 308.037 61 308.037C55.477 308.037 51 303.657 51 298.253C51 292.849 55.477 288.469 61 288.469ZM71 296.296C75.418 296.296 79 292.792 79 288.469C79 284.146 75.418 280.642 71 280.642C66.582 280.642 63 284.146 63 288.469C63 292.792 66.582 296.296 71 296.296ZM111 335.432C115.418 335.432 119 331.927 119 327.605C119 323.282 115.418 319.778 111 319.778C106.582 319.778 103 323.282 103 327.605C103 331.927 106.582 335.432 111 335.432Z" fill="black"/>
<path fill-rule="evenodd" clip-rule="evenodd" d="M183 327.605C183 322.201 187.477 317.821 193 317.821C198.523 317.821 203 322.201 203 327.605C203 333.008 198.523 337.389 193 337.389C193 342.792 188.523 347.173 183 347.173C177.477 347.173 173 342.792 173 337.389C173 331.985 177.477 327.605 183 327.605ZM143 288.469C143 283.065 147.477 278.685 153 278.685C158.523 278.685 163 283.065 163 288.469C163 293.873 158.523 298.253 153 298.253C153 303.657 148.523 308.037 143 308.037C137.477 308.037 133 303.657 133 298.253C133 292.849 137.477 288.469 143 288.469ZM153 296.296C157.418 296.296 161 292.792 161 288.469C161 284.146 157.418 280.642 153 280.642C148.582 280.642 145 284.146 145 288.469C145 292.792 148.582 296.296 153 296.296ZM193 335.432C197.418 335.432 201 331.927 201 327.605C201 323.282 197.418 319.778 193 319.778C188.582 319.778 185 323.282 185 327.605C185 331.927 188.582 335.432 193 335.432Z" fill="black"/>
</g>
<defs>
<clipPath id="clip0_618:2320">
<rect width="236" height="317" fill="white" transform="translate(-31)"/>
</clipPath>
<clipPath id="clip1_618:2320">
<rect width="236" height="317" fill="white" transform="translate(-31 38)"/>
</clipPath>
</defs>
</svg>
